<svg xmlns="http://www.w3.org/2000/svg" xml:space="preserve" width="328" height="54" viewBox="0 0 328 54">
	<g fill="#FFF">
		<path
			d="M4.62 43V11.87h8.954c1.774 0 3.311.176 4.609.528 1.298.352 2.372.868 3.223 1.551.851.682 1.485 1.515 1.903 2.497s.627 2.098.627 3.344c0 .821-.143 1.613-.429 2.376a7.168 7.168 0 0 1-1.243 2.112c-.543.646-1.207 1.206-1.991 1.683s-1.683.84-2.695 1.089c2.449.367 4.334 1.181 5.654 2.442s1.98 2.926 1.98 4.994c0 1.319-.235 2.508-.704 3.563-.469 1.057-1.151 1.951-2.046 2.685s-1.995 1.294-3.3 1.683c-1.306.389-2.787.583-4.444.583H4.62zm2.244-16.566h6.754c1.437 0 2.665-.183 3.685-.55 1.019-.366 1.855-.851 2.508-1.452a5.642 5.642 0 0 0 1.441-2.046 6.228 6.228 0 0 0 .462-2.354c0-2.098-.664-3.686-1.991-4.764-1.328-1.077-3.377-1.616-6.149-1.616h-6.71v12.782zm0 1.65v13.112h7.81c2.743 0 4.811-.591 6.204-1.771 1.393-1.181 2.09-2.841 2.09-4.982 0-.982-.187-1.866-.561-2.651-.374-.784-.913-1.452-1.617-2.002s-1.57-.972-2.596-1.265c-1.027-.294-2.193-.44-3.498-.44H6.864zM35.904 43h-2.266V11.87h2.266V43zM64.635 11.87v1.87h-16.39v12.584h13.64v1.826h-13.64v12.98h16.39V43H45.979V11.87h18.656zM73.567 11.947c.117.052.242.165.374.341L94.093 39.26a12.805 12.805 0 0 1-.066-1.275V11.87h1.98V43h-1.078c-.337 0-.609-.146-.814-.44l-20.24-27.016c.044.44.066.858.066 1.254V43h-1.958V11.87h1.1c.205 0 .366.026.484.077zM123.903 11.87v1.87h-16.39v12.584h13.64v1.826h-13.64v12.98h16.39V43h-18.656V11.87h18.656zM146.32 15.654c-.132.249-.323.374-.572.374-.191 0-.438-.136-.74-.407s-.71-.572-1.225-.902c-.515-.33-1.159-.634-1.931-.913-.772-.278-1.725-.418-2.858-.418s-2.13.162-2.991.484c-.86.322-1.582.763-2.163 1.32-.581.558-1.022 1.202-1.324 1.936s-.452 1.504-.452 2.311c0 1.056.224 1.929.671 2.617a6.078 6.078 0 0 0 1.774 1.761c.734.483 1.568.891 2.5 1.221s1.891.656 2.875.979c.984.323 1.942.679 2.875 1.067s1.766.877 2.5 1.463a6.734 6.734 0 0 1 1.773 2.167c.448.858.672 1.925.672 3.201 0 1.306-.224 2.534-.671 3.685a8.578 8.578 0 0 1-1.947 3.003c-.851.852-1.892 1.522-3.124 2.014s-2.64.736-4.224.736c-2.053 0-3.821-.362-5.302-1.089a12.491 12.491 0 0 1-3.894-2.98l.616-.968c.176-.221.381-.33.616-.33.132 0 .301.088.507.264s.455.393.749.649c.293.256.646.535 1.057.836s.889.579 1.432.836c.543.257 1.167.473 1.873.648s1.505.265 2.401.265c1.234 0 2.335-.188 3.305-.562s1.788-.884 2.457-1.529a6.482 6.482 0 0 0 1.531-2.299 7.654 7.654 0 0 0 .528-2.849c0-1.101-.224-2.006-.672-2.717a5.777 5.777 0 0 0-1.774-1.782 11.447 11.447 0 0 0-2.5-1.199 103.32 103.32 0 0 0-2.875-.946 36.211 36.211 0 0 1-2.875-1.033 9.89 9.89 0 0 1-2.5-1.464 6.685 6.685 0 0 1-1.774-2.222c-.448-.887-.671-1.998-.671-3.333 0-1.041.198-2.046.594-3.014a7.503 7.503 0 0 1 1.741-2.563c.764-.74 1.708-1.334 2.831-1.781s2.405-.672 3.844-.672c1.616 0 3.066.257 4.351.771s2.456 1.298 3.512 2.354l-.526 1.01z" />
	</g>
	<g fill="#FFF">
		<path
			d="M158.948 30.57V43h-5.918V11.188h9.702c2.17 0 4.03.224 5.577.671 1.548.447 2.816 1.074 3.807 1.881s1.716 1.771 2.178 2.893.693 2.358.693 3.707a9.613 9.613 0 0 1-.473 3.036 8.817 8.817 0 0 1-1.365 2.596 9.155 9.155 0 0 1-2.199 2.046 11.513 11.513 0 0 1-2.98 1.408c.748.426 1.393 1.034 1.936 1.826L177.868 43h-5.324c-.513 0-.95-.103-1.309-.308a2.67 2.67 0 0 1-.913-.881l-6.688-10.186c-.25-.381-.525-.652-.825-.814-.301-.161-.745-.241-1.331-.241h-2.53zm0-4.246h3.696c1.115 0 2.086-.14 2.915-.418.829-.278 1.511-.664 2.047-1.155a4.637 4.637 0 0 0 1.199-1.749 6.047 6.047 0 0 0 .396-2.222c0-1.613-.532-2.853-1.595-3.719-1.064-.864-2.688-1.298-4.874-1.298h-3.784v10.561zM209.613 43h-4.575c-.514 0-.935-.128-1.265-.385s-.568-.575-.715-.957l-2.377-6.49h-13.178l-2.376 6.49c-.118.337-.349.646-.692.924-.345.278-.767.418-1.265.418h-4.598l12.496-31.812h6.05L209.613 43zm-20.592-12.012h10.143l-3.872-10.582c-.177-.47-.37-1.023-.583-1.661s-.422-1.331-.627-2.079a72.847 72.847 0 0 1-.605 2.09c-.197.646-.393 1.21-.582 1.694l-3.874 10.538zM219.558 43h-5.94V11.188h5.94V43zM248.576 35.498c.322 0 .601.125.836.374l2.332 2.53c-1.291 1.599-2.879 2.823-4.764 3.674s-4.146 1.275-6.787 1.275c-2.361 0-4.484-.402-6.369-1.21-1.885-.806-3.494-1.928-4.828-3.365-1.336-1.438-2.358-3.153-3.069-5.148-.712-1.994-1.067-4.173-1.067-6.534 0-2.391.396-4.579 1.188-6.566.793-1.987 1.907-3.7 3.345-5.138 1.437-1.437 3.157-2.555 5.159-3.354s4.213-1.199 6.633-1.199c2.361 0 4.426.378 6.193 1.133 1.768.756 3.281 1.757 4.543 3.003l-1.98 2.75a1.78 1.78 0 0 1-.451.462c-.184.133-.436.198-.759.198-.337 0-.683-.132-1.034-.396-.352-.265-.799-.551-1.342-.858s-1.229-.594-2.057-.858c-.829-.264-1.881-.396-3.157-.396-1.496 0-2.871.261-4.125.781s-2.332 1.265-3.233 2.232c-.902.969-1.606 2.146-2.113 3.531-.506 1.386-.758 2.944-.758 4.675 0 1.79.252 3.381.758 4.774.507 1.394 1.191 2.566 2.058 3.52.865.954 1.884 1.684 3.058 2.189s2.436.759 3.784.759c.807 0 1.536-.044 2.189-.132a9.353 9.353 0 0 0 1.804-.418 8 8 0 0 0 1.562-.737c.49-.3.979-.671 1.463-1.11.146-.133.301-.238.461-.319.16-.082.336-.122.527-.122zM276.273 11.188v4.708H262.17v8.821h11.11v4.555h-11.11v8.997h14.103V43h-20.064V11.188h20.064zM298.449 16.974c-.162.323-.35.551-.562.683a1.411 1.411 0 0 1-.759.197c-.294 0-.624-.113-.99-.341-.367-.227-.8-.479-1.299-.759a10.687 10.687 0 0 0-1.748-.759c-.668-.228-1.456-.341-2.365-.341-.822 0-1.537.099-2.145.297-.609.198-1.123.473-1.541.825a3.299 3.299 0 0 0-.935 1.265 4.138 4.138 0 0 0-.308 1.617c0 .748.209 1.371.627 1.87.418.498.971.924 1.66 1.275.689.353 1.475.668 2.354.946s1.778.576 2.695.891c.916.316 1.815.683 2.694 1.101a9.29 9.29 0 0 1 2.354 1.584c.688.638 1.243 1.419 1.661 2.343s.627 2.046.627 3.366c0 1.438-.246 2.783-.737 4.037s-1.21 2.347-2.155 3.277c-.947.932-2.102 1.665-3.465 2.2-1.365.535-2.927.803-4.687.803a15.555 15.555 0 0 1-5.819-1.144 14.667 14.667 0 0 1-2.529-1.32 12.452 12.452 0 0 1-2.102-1.716l1.716-2.838c.161-.205.355-.377.583-.517s.48-.209.76-.209c.365 0 .762.15 1.188.45a35.6 35.6 0 0 0 1.507 1.001c.579.367 1.261.701 2.046 1.001.785.301 1.727.451 2.827.451 1.687 0 2.992-.399 3.916-1.198.924-.8 1.386-1.947 1.386-3.443 0-.836-.209-1.519-.627-2.046-.418-.528-.972-.972-1.66-1.331-.689-.359-1.475-.664-2.354-.913s-1.774-.521-2.685-.814a23.049 23.049 0 0 1-2.684-1.056 8.69 8.69 0 0 1-2.354-1.606c-.689-.659-1.244-1.484-1.662-2.475s-.627-2.211-.627-3.663c0-1.158.231-2.288.693-3.388.463-1.101 1.137-2.075 2.024-2.926s1.976-1.533 3.267-2.046c1.291-.514 2.765-.771 4.422-.771 1.877 0 3.608.294 5.192.88 1.584.587 2.933 1.408 4.048 2.464l-1.448 2.796z" />
	</g>
</svg>